HIERARCHY
ROOT pelvis
{
    OFFSET 0.0 93.43424987792969 0.0
    CHANNELS 6 Xposition Yposition Zposition Zrotation Yrotation Xrotation

    JOINT left_hip
    {
        OFFSET -5.487524032592773 -5.2325592041015625 -0.7631623148918152
        CHANNELS 3 Zrotation Yrotation Xrotation

        JOINT left_knee
        {
            OFFSET -7.749534606933594 -40.50933837890625 -0.42856889963150024
            CHANNELS 3 Zrotation Yrotation Xrotation

            JOINT left_ankle
            {
                OFFSET -0.9734487533569336 -42.30165100097656 -5.4050397872924805
                CHANNELS 3 Zrotation Yrotation Xrotation

                JOINT left_foot
                {
                    OFFSET -3.5274858474731445 -4.548106670379639 13.312971115112305
                    CHANNELS 3 Zrotation Yrotation Xrotation

                    End Site
                    {
                        OFFSET 0 0 0
                    }
                }
            }
        }
    }

    JOINT right_hip
    {
        OFFSET 6.5406389236450195 -4.806877136230469 -2.235987901687622
        CHANNELS 3 Zrotation Yrotation Xrotation

        JOINT right_knee
        {
            OFFSET 7.951041221618652 -40.66020202636719 -0.8243288993835449
            CHANNELS 3 Zrotation Yrotation Xrotation

            JOINT right_ankle
            {
                OFFSET -0.9453449249267578 -41.332054138183594 -4.012650489807129
                CHANNELS 3 Zrotation Yrotation Xrotation

                JOINT right_foot
                {
                    OFFSET 1.0298566818237305 -6.38070011138916 13.429121017456055
                    CHANNELS 3 Zrotation Yrotation Xrotation

                    End Site
                    {
                        OFFSET 0 0 0
                    }
                }
            }
        }
    }

    JOINT spine1
    {
        OFFSET -1.0306668281555176 17.51691436767578 -1.2606257200241089
        CHANNELS 3 Zrotation Yrotation Xrotation

        JOINT spine2
        {
            OFFSET 0.30286675691604614 12.460441589355469 1.1875237226486206
            CHANNELS 3 Zrotation Yrotation Xrotation

            JOINT spine3
            {
                OFFSET 0.1970667839050293 4.174102783203125 2.595491409301758
                CHANNELS 3 Zrotation Yrotation Xrotation

                JOINT left_collar
                {
                    OFFSET -7.550829887390137 8.930679321289062 -3.9546098709106445
                    CHANNELS 3 Zrotation Yrotation Xrotation

                    JOINT left_shoulder
                    {
                        OFFSET -13.23507022857666 -0.458831787109375 -1.053511619567871
                        CHANNELS 3 Zrotation Yrotation Xrotation

                        JOINT left_elbow
                        {
                            OFFSET -6.248392105102539 -21.833396911621094 1.6390458345413208
                            CHANNELS 3 Zrotation Yrotation Xrotation

                            JOINT left_wrist
                            {
                                OFFSET -11.462799072265625 -25.028945922851562 -2.4176197052001953
                                CHANNELS 3 Zrotation Yrotation Xrotation

                                End Site
                                {
                                    OFFSET 0 0 0
                                }
                            }
                        }
                    }
                }

                JOINT right_collar
                {
                    OFFSET 7.237208366394043 9.538742065429688 -4.213591575622559
                    CHANNELS 3 Zrotation Yrotation Xrotation

                    JOINT right_shoulder
                    {
                        OFFSET 12.239594459533691 0.6848602294921875 -1.7421607971191406
                        CHANNELS 3 Zrotation Yrotation Xrotation

                        JOINT right_elbow
                        {
                            OFFSET 7.026248931884766 -22.651840209960938 0.507472038269043
                            CHANNELS 3 Zrotation Yrotation Xrotation

                            JOINT right_wrist
                            {
                                OFFSET 13.156808853149414 -25.003158569335938 -1.2739484310150146
                                CHANNELS 3 Zrotation Yrotation Xrotation

                                End Site
                                {
                                    OFFSET 0 0 0
                                }
                            }
                        }
                    }
                }

                JOINT neck
                {
                    OFFSET -0.5677996277809143 20.526947021484375 -4.74938440322876
                    CHANNELS 3 Zrotation Yrotation Xrotation

                    JOINT head
                    {
                        OFFSET 0.5506619811058044 12.691131591796875 5.4586181640625
                        CHANNELS 3 Zrotation Yrotation Xrotation

                        End Site
                        {
                            OFFSET 0 0 0
                        }
                    }
                }
            }
        }
    }

}

MOTION
Frames: 18
Frame Time: 0.050000
0.000000 93.434250 0.000000 0.000000 0.000000 0.000000 0.000000 0.000000 0.000000 0.000000 0.000000 0.000000 0.000000 0.000000 0.000000 0.000000 0.000000 0.000000 0.000000 0.000000 0.000000 0.000000 0.000000 0.000000 0.000000 0.000000 0.000000 0.000000 0.000000 0.000000 0.000000 0.000000 0.000000 0.000000 0.000000 0.000000 0.000000 0.000000 0.000000 0.000000 0.000000 0.000000 0.000000 0.000000 0.000000 0.000000 0.000000 0.000000 0.000000 0.000000 0.000000 0.000000 0.000000 0.000000 0.000000 0.000000 0.000000 0.000000 0.000000 0.000000 0.000000 0.000000 0.000000 0.000000 0.000000 0.000000 0.000000 0.000000 0.000000
-0.006955 93.398315 0.008019 0.000000 0.000000 -0.000000 -0.019195 -0.021023 -0.006683 -0.001375 -0.000334 0.012472 -0.026845 -0.026624 0.002508 0.000000 0.000000 -0.000000 -0.030032 -0.031658 0.002252 -0.006526 -0.002810 0.128253 -0.189138 -0.051014 0.003105 0.000000 0.000000 -0.000000 -0.064508 0.057401 -0.054506 0.109727 -0.031628 0.111836 0.000000 0.000000 -0.000000 0.077099 -0.145299 -0.088585 0.487654 0.326461 0.168728 0.037131 -0.200426 -0.339832 0.000000 0.000000 -0.000000 -0.173459 -0.210939 -0.211856 -0.133236 -0.293672 0.187969 0.065219 0.300609 -0.310536 0.000000 0.000000 -0.000000 -0.203391 0.126387 -0.188439 0.000000 0.000000 -0.000000
-0.015070 93.400375 0.014777 0.000000 0.000000 -0.000000 -0.060301 -0.068148 -0.032180 0.011831 0.016341 0.075300 0.088862 0.015027 0.084473 0.000000 0.000000 -0.000000 -0.011441 -0.008909 -0.015240 -0.136785 -0.141215 0.265305 -0.276200 -0.152980 0.053403 0.000000 0.000000 -0.000000 -0.067376 0.060075 -0.051833 0.074689 -0.007212 0.193365 0.000000 0.000000 -0.000000 0.244553 -0.078512 -0.267672 0.958068 0.861051 0.582111 0.072692 -0.554431 -0.857065 0.000000 0.000000 -0.000000 -0.330557 -0.310987 -0.398565 -0.609100 -0.853674 0.427248 0.251060 0.788515 -0.643910 0.000000 0.000000 -0.000000 -0.363371 0.224367 -0.390049 0.000000 0.000000 -0.000000
-0.027879 93.429810 0.016144 0.000000 0.000000 -0.000000 -0.110552 -0.140139 -0.139798 0.029014 0.025619 0.169060 0.566098 0.131814 0.110312 0.000000 0.000000 -0.000000 0.023148 0.029748 -0.029162 -0.360975 -0.387173 0.353990 -0.358988 -0.328942 0.084550 0.000000 0.000000 -0.000000 -0.008497 0.006625 -0.045645 -0.100185 0.071697 0.256574 0.000000 0.000000 -0.000000 0.640624 0.023312 -0.693061 1.619211 1.605152 1.453309 0.154330 -1.243232 -2.143162 0.000000 0.000000 -0.000000 -0.526750 -0.486748 -0.634377 -1.239707 -1.685567 0.850045 0.435548 1.574350 -1.511355 0.000000 0.000000 -0.000000 -0.533467 0.333497 -0.493450 0.000000 0.000000 -0.000000
-0.040656 93.486656 -0.007301 0.000000 0.000000 -0.000000 -0.175011 -0.238108 -0.309811 0.158763 0.154907 0.294312 0.901546 0.248471 0.053054 0.000000 0.000000 -0.000000 0.092609 0.119342 -0.119289 -0.729392 -0.778288 0.501093 -1.119047 -0.745766 0.077315 0.000000 0.000000 -0.000000 0.131512 -0.123695 -0.154297 -0.394168 0.199311 0.539323 0.000000 0.000000 -0.000000 1.365284 0.112831 -1.474336 2.625882 2.665316 2.981905 0.372413 -2.562414 -5.482631 0.000000 0.000000 -0.000000 -0.831740 -0.755349 -1.000337 -2.166261 -3.019381 1.768945 0.600215 3.246990 -4.392589 0.000000 0.000000 -0.000000 -0.777051 0.495324 -0.499613 0.000000 0.000000 -0.000000
-0.045072 93.582474 -0.086694 0.000000 0.000000 -0.000000 -0.279763 -0.381574 -0.506596 0.548048 0.580441 0.459070 0.966224 0.330302 -0.189747 0.000000 0.000000 -0.000000 0.205656 0.283009 -0.362721 -1.263084 -1.321550 0.876415 -2.686950 -1.375674 -0.223097 0.000000 0.000000 -0.000000 0.385684 -0.367872 -0.557452 -0.868932 0.411397 1.425265 0.000000 0.000000 -0.000000 2.515159 0.358011 -2.708975 3.656879 3.963575 5.588547 0.950503 -4.821812 -13.842078 0.000000 0.000000 -0.000000 -1.265665 -1.076205 -1.517108 -2.902011 -4.789203 4.513082 0.344985 6.831458 -13.970289 0.000000 0.000000 -0.000000 -1.086734 0.707554 -0.290983 0.000000 0.000000 -0.000000
-0.028011 93.653336 -0.244697 0.000000 0.000000 -0.000000 -0.411852 -0.554167 -0.716061 0.897957 0.958229 0.535534 0.373992 0.335854 -0.328767 0.000000 0.000000 -0.000000 0.194007 0.325381 -0.648670 -1.492171 -1.508242 1.210983 -3.379686 -1.641297 -0.496099 0.000000 0.000000 -0.000000 0.639254 -0.620763 -1.127831 -1.155453 0.522251 2.561381 0.000000 0.000000 -0.000000 3.620250 0.310145 -3.905148 4.347376 4.497519 7.703748 1.992960 -6.407808 -23.940101 0.000000 0.000000 -0.000000 -1.490013 -1.328825 -1.788380 -2.490366 -5.513342 7.495509 -0.509018 10.358795 -27.302276 0.000000 0.000000 -0.000000 -1.685782 1.108173 -0.118690 0.000000 0.000000 -0.000000
0.001639 93.725571 -0.433071 0.000000 0.000000 -0.000000 -0.464166 -0.633422 -0.861368 1.061708 1.115717 0.405803 -1.314707 0.177030 -0.333102 0.000000 0.000000 -0.000000 0.144833 0.336276 -0.971651 -1.513222 -1.449750 1.366808 -4.926863 -2.046438 -0.396398 0.000000 0.000000 -0.000000 0.908975 -0.887652 -1.546287 -0.697182 0.186023 2.727550 0.000000 0.000000 -0.000000 4.229450 0.036186 -4.574332 4.183177 4.155354 9.422567 5.697756 -7.029974 -37.514409 0.000000 0.000000 -0.000000 -1.244467 -2.001872 -1.539696 -0.810721 -4.956811 8.900574 -0.923805 14.111589 -41.123555 0.000000 0.000000 -0.000000 -2.676347 1.759264 -0.375919 0.000000 0.000000 -0.000000
0.021805 93.833900 -0.617607 0.000000 0.000000 -0.000000 -0.518579 -0.749922 -1.205660 1.276523 1.306956 0.552332 -3.279663 -0.166572 -0.450470 0.000000 0.000000 -0.000000 0.257090 0.544825 -1.474965 -1.750481 -1.603280 1.689679 -8.517770 -2.922191 -0.498115 0.000000 0.000000 -0.000000 1.430245 -1.386553 -1.784464 0.107098 -0.467413 2.205590 0.000000 0.000000 -0.000000 3.875358 0.565165 -4.170515 2.636851 3.458569 9.916011 17.317248 -7.482062 -58.899490 0.000000 0.000000 -0.000000 -0.457842 -3.413917 -0.708834 1.858342 -3.841672 8.872858 4.620598 21.794041 -63.044020 0.000000 0.000000 -0.000000 -3.420592 2.252432 -0.560015 0.000000 0.000000 -0.000000
0.017556 93.900146 -0.783094 0.000000 0.000000 -0.000000 -0.628624 -0.973511 -1.851253 1.489681 1.485955 1.348650 -2.150923 -0.283058 -0.859241 0.000000 0.000000 -0.000000 0.360538 0.739014 -1.963895 -2.048168 -1.823559 1.871911 -11.739127 -3.876998 -0.213967 0.000000 0.000000 -0.000000 2.143310 -2.085573 -2.270074 0.376293 -0.866674 3.005670 0.000000 0.000000 -0.000000 2.643169 0.674459 -2.835265 2.150767 2.275781 4.391837 52.029934 -7.537213 -78.334695 0.000000 0.000000 -0.000000 0.572969 -3.417085 0.470690 3.078426 -2.152696 5.410173 24.968086 28.787121 -84.188358 0.000000 0.000000 -0.000000 -3.859878 2.541637 0.023270 0.000000 0.000000 -0.000000
-0.041222 93.948776 -0.923060 0.000000 0.000000 -0.000000 -0.673001 -1.115400 -2.418577 1.494742 1.443348 2.179850 2.121141 0.226857 -1.216357 0.000000 0.000000 -0.000000 0.349665 0.806202 -2.393205 -2.318540 -2.018148 2.149381 -13.413413 -4.626718 0.392297 0.000000 0.000000 -0.000000 2.710867 -2.672888 -2.973655 0.274622 -1.009196 4.296712 0.000000 0.000000 -0.000000 1.323143 -0.474317 -1.450319 4.435072 0.743794 -6.654106 -162.293518 -8.839610 -91.698332 0.000000 0.000000 -0.000000 1.949494 -1.844273 2.136083 4.533069 2.180656 -2.351937 -57.018915 34.839011 -96.774579 0.000000 0.000000 -0.000000 -4.274395 2.807511 0.685387 0.000000 0.000000 -0.000000
-0.172581 93.985039 -1.012702 0.000000 0.000000 -0.000000 -0.549098 -1.093885 -2.999048 1.132662 0.961765 3.115296 6.671911 0.546130 -1.580878 0.000000 0.000000 -0.000000 0.389839 0.884213 -2.604358 -2.838239 -2.544102 2.339500 -12.140768 -4.760231 0.622759 0.000000 0.000000 -0.000000 2.919704 -2.923630 -3.647259 0.216139 -1.051381 4.977759 0.000000 0.000000 -0.000000 -0.025265 -2.312011 -0.054493 7.051396 -2.266605 -19.159422 -57.481944 -10.142642 -99.489426 0.000000 0.000000 -0.000000 3.417855 0.133970 3.945933 6.756757 7.840472 -13.021481 -6.349748 41.920136 -106.638792 0.000000 0.000000 -0.000000 -5.155606 3.370950 1.094260 0.000000 0.000000 -0.000000
-0.352922 93.992691 -1.027843 0.000000 0.000000 -0.000000 -0.476107 -1.139332 -3.675393 0.847619 0.564799 4.281854 10.018711 0.328840 -2.081411 0.000000 0.000000 -0.000000 0.425751 0.940611 -2.720594 -3.392131 -3.126492 2.397390 -12.132840 -5.206757 0.665533 0.000000 0.000000 -0.000000 3.238784 -3.278059 -4.198617 -0.351202 -0.872166 5.603055 0.000000 0.000000 -0.000000 -1.439658 -4.580891 1.404687 9.988719 -6.113348 -31.474939 -33.202356 -11.138551 -108.147162 0.000000 0.000000 -0.000000 4.770092 2.025358 5.634009 9.437916 13.073694 -23.325747 6.520034 47.794483 -116.668255 0.000000 0.000000 -0.000000 -6.102431 3.967813 1.487580 0.000000 0.000000 -0.000000
-0.547702 93.968353 -0.958878 0.000000 0.000000 -0.000000 -0.575913 -1.354951 -4.384876 0.890778 0.579206 5.591200 12.388261 -0.193176 -2.714778 0.000000 0.000000 -0.000000 0.363578 0.912319 -2.905371 -3.817127 -3.541798 2.547350 -14.401584 -6.168827 0.678805 0.000000 0.000000 -0.000000 3.776208 -3.864560 -4.853365 -1.084222 -0.709345 6.450632 0.000000 0.000000 -0.000000 -3.166334 -7.286873 3.199540 14.760874 -10.294598 -43.911280 -22.529795 -11.216047 -116.890817 0.000000 0.000000 -0.000000 6.193282 3.898810 7.420003 13.440909 18.474227 -34.405538 17.585012 52.569305 -125.053223 0.000000 0.000000 -0.000000 -7.494306 4.840030 1.832683 0.000000 0.000000 -0.000000
-0.744174 93.947342 -0.803621 0.000000 0.000000 -0.000000 -0.581834 -1.420479 -4.743625 1.031537 0.730384 6.454037 12.640176 -0.790450 -3.143669 0.000000 0.000000 -0.000000 0.119766 0.695801 -3.035901 -4.062197 -3.761319 2.826234 -17.193130 -7.226086 0.552555 0.000000 0.000000 -0.000000 4.518990 -4.680358 -5.605473 -1.877182 -0.613159 6.873078 0.000000 0.000000 -0.000000 -4.929919 -9.777464 5.055499 23.857258 -13.301672 -54.797220 -15.041188 -6.989683 -122.829641 0.000000 0.000000 -0.000000 7.781275 5.217819 9.367203 19.252660 23.262189 -45.317029 28.779242 56.772901 -133.212719 0.000000 0.000000 -0.000000 -9.721332 6.218419 2.290613 0.000000 0.000000 -0.000000
-0.933696 93.957230 -0.586768 0.000000 0.000000 -0.000000 -0.267082 -1.112840 -4.682841 0.638651 0.224238 6.789124 12.136942 -1.356413 -3.151763 0.000000 0.000000 -0.000000 -0.045213 0.531823 -3.027671 -4.267679 -3.985568 3.099241 -20.834867 -8.447565 0.406086 0.000000 0.000000 -0.000000 5.488984 -5.837596 -7.069873 -2.995568 -0.400317 6.632479 0.000000 0.000000 -0.000000 -6.053840 -11.628110 6.237089 36.943009 -15.269490 -63.408423 -9.844852 4.863820 -128.121341 0.000000 0.000000 -0.000000 8.755247 5.612234 10.529553 21.979670 24.992323 -53.972865 38.778174 54.186921 -138.937357 0.000000 0.000000 -0.000000 -12.890354 8.222859 2.202131 0.000000 0.000000 -0.000000
-1.093567 93.911972 -0.342200 0.000000 0.000000 -0.000000 0.016697 -0.846038 -4.692483 0.141100 -0.415882 7.277426 14.923255 -1.602098 -3.495835 0.000000 0.000000 -0.000000 -0.075825 0.494167 -2.987517 -4.451637 -4.194762 3.072914 -22.161269 -9.056528 0.592718 0.000000 0.000000 -0.000000 5.956475 -6.518223 -8.527338 -3.605304 -0.210992 6.297836 0.000000 0.000000 -0.000000 -6.190583 -11.692488 6.386464 42.204300 -15.852965 -66.715224 -6.993750 10.492329 -131.620906 0.000000 0.000000 -0.000000 8.883055 4.745143 10.599916 24.061632 24.922185 -56.193656 45.677456 51.987770 -144.834090 0.000000 0.000000 -0.000000 -14.797430 9.478032 1.825989 0.000000 0.000000 -0.000000
-1.214175 93.872032 -0.095521 0.000000 0.000000 -0.000000 0.084402 -0.774253 -4.649218 0.000144 -0.585468 7.587381 16.863524 -1.728943 -3.798397 0.000000 0.000000 -0.000000 -0.111818 0.441985 -2.898523 -4.566550 -4.337342 2.977027 -23.425347 -9.554808 0.630998 0.000000 0.000000 -0.000000 6.258747 -7.010199 -9.713920 -4.162293 -0.014804 6.614088 0.000000 0.000000 -0.000000 -5.978042 -11.288807 6.164137 44.605220 -15.393765 -67.537878 -5.067066 12.792264 -133.600823 0.000000 0.000000 -0.000000 8.857893 3.745815 10.483341 25.894089 24.591618 -56.841233 49.561902 51.232342 -148.665247 0.000000 0.000000 -0.000000 -15.638274 10.024251 1.749025 0.000000 0.000000 -0.000000
